<svg xmlns="http://www.w3.org/2000/svg" viewBox="0 0 145.12 32"><defs><style>.cls-1{fill:#e0ff00;}.cls-2{fill:#121212;}</style></defs><title>coderhouse-logo</title><g id="Capa_2" data-name="Capa 2"><g id="Capa_1-2" data-name="Capa 1"><polygon class="cls-1" points="0 32 6.7 0 145.12 0 138.47 32 0 32"/><path class="cls-2" d="M19,24q-1.18,5.59-6.79,5.61c-3.06,0-4.6-1.27-4.6-3.81A8.59,8.59,0,0,1,7.77,24L11.08,8.46q1.18-5.61,6.77-5.6,4.62,0,4.62,3.81a8.73,8.73,0,0,1-.21,1.79l-.78,3.68H17.17l.77-3.68A2.07,2.07,0,0,0,18,7.94c0-.62-.34-.94-1-1h0c-.84,0-1.36.49-1.57,1.47L12.09,24a2,2,0,0,0-.07.52c0,.63.34.94,1,.94.85,0,1.38-.49,1.59-1.46l.78-3.68h4.31Z"/><path class="cls-2" d="M31.29,24q-1.18,5.59-6.79,5.61c-3.06,0-4.6-1.27-4.6-3.81a8.59,8.59,0,0,1,.21-1.8L23.42,8.46q1.18-5.61,6.77-5.6,4.62,0,4.62,3.81a8.73,8.73,0,0,1-.21,1.79Zm-1-15.55a2.07,2.07,0,0,0,.07-.52c0-.62-.34-.94-1-1h0c-.84,0-1.36.49-1.57,1.47L24.43,24a2,2,0,0,0-.07.52c0,.63.34.94,1,.94.85,0,1.38-.49,1.59-1.46Z"/><path class="cls-2" d="M37.24,3.26h6C46,3.27,47.46,4.51,47.46,7a9.64,9.64,0,0,1-.22,1.89L44.11,23.61q-1.19,5.58-6.62,5.59H31.74Zm3.44,4.13L36.93,25.07h1.29c.84,0,1.37-.49,1.58-1.46L42.92,8.87A2.58,2.58,0,0,0,43,8.35c0-.64-.35-1-1-1Z"/><path class="cls-2" d="M50,3.26H60.13l-.88,4.13H53.41L52,14.16h5l-.88,4.15h-5l-1.44,6.76h5.85l-.88,4.13H44.47Z"/><path class="cls-2" d="M61.26,3.26h5.67q4.23,0,4.23,3.72a8.93,8.93,0,0,1-.22,1.89l-.8,3.82a5.69,5.69,0,0,1-3.8,4.57L68,29.2h-4.7l-.58-11.15h-.24L60.07,29.2H55.76ZM64.7,7.39l-1.43,6.77h.52a3.44,3.44,0,0,0,.92-.08,1.74,1.74,0,0,0,1.11-1.39l.81-3.82a2.52,2.52,0,0,0,.06-.52q0-1-1-1Z"/><path class="cls-2" d="M78.94,3.26h4.32L81,14.16H83.5l2.31-10.9h4.32L84.62,29.2H80.3l2.32-10.89H80.07L77.75,29.2H73.44Z"/><path class="cls-2" d="M98.42,24q-1.19,5.59-6.79,5.61-4.6,0-4.6-3.81a8.59,8.59,0,0,1,.21-1.8l3.3-15.55q1.2-5.61,6.78-5.6,4.62,0,4.62,3.81a8.73,8.73,0,0,1-.21,1.79Zm-1-15.55a2.67,2.67,0,0,0,.07-.52c0-.62-.34-.94-1-1h0c-.84,0-1.36.49-1.57,1.47L91.55,24a2.52,2.52,0,0,0-.06.52c0,.63.34.94,1,.94.86,0,1.39-.49,1.6-1.46Z"/><path class="cls-2" d="M111,24q-1.18,5.59-6.79,5.61-4.61,0-4.6-3.81a8.59,8.59,0,0,1,.21-1.8l4.4-20.75h4.32L104.15,24a2.52,2.52,0,0,0-.06.52c0,.63.34.94,1,.94.86,0,1.39-.49,1.6-1.46l4.4-20.75h4.32Z"/><path class="cls-2" d="M115.74,8.46q1.2-5.61,6.78-5.6c3.08,0,4.61,1.27,4.61,3.81a9.41,9.41,0,0,1-.2,1.79l-.78,3.68h-4.32l.78-3.68a2.59,2.59,0,0,0,.06-.52c0-.62-.34-.94-1-1h0c-.84,0-1.37.49-1.57,1.47l-.5,2.3a2.07,2.07,0,0,0,0,.35c0,1,.83,2.2,2.51,3.62a6,6,0,0,1,2.42,4.69,6.46,6.46,0,0,1-.15,1.37L123.62,24q-1.19,5.61-6.78,5.61-4.61,0-4.61-3.82a8.58,8.58,0,0,1,.21-1.79l.77-3.68h4.32L116.75,24a2.52,2.52,0,0,0-.06.52c0,.63.34.94,1,.94.85,0,1.38-.49,1.59-1.46l.62-2.91a2.46,2.46,0,0,0,0-.4c0-1.06-.83-2.3-2.49-3.7a6,6,0,0,1-2.4-4.72,6.55,6.55,0,0,1,.16-1.44Z"/><path class="cls-2" d="M129.57,3.26h10.16l-.88,4.13H133l-1.43,6.77h5l-.88,4.15h-5l-1.44,6.76h5.84l-.88,4.13H124.06Z"/></g></g></svg>