<?xml version="1.0" encoding="iso-8859-1"?>
<!-- Generator: Adobe Illustrator 19.0.0, SVG Export Plug-In . SVG Version: 6.00 Build 0)  -->
<svg version="1.1" id="Capa_1" xmlns="http://www.w3.org/2000/svg" xmlns:xlink="http://www.w3.org/1999/xlink" x="0px" y="0px"
	 viewBox="0 0 56.48 56.48" style="enable-background:new 0 0 56.48 56.48;" xml:space="preserve">
<g>
	<g>
		<polygon points="23.631,32.554 23.608,32.554 22.581,35.724 24.624,35.724 		"/>
	</g>
</g>
<g>
	<g>
		<path d="M16.24,32.133h-1.92v1.752h1.963c0.66-0.002,1.184-0.26,1.184-0.894C17.467,32.333,16.998,32.133,16.24,32.133z"/>
	</g>
</g>
<g>
	<g>
		<path d="M16.451,35.232H14.32v2.143h2.053c0.814,0,1.283-0.359,1.283-1.172C17.656,35.5,17.054,35.232,16.451,35.232z"/>
	</g>
</g>
<g>
	<g>
		<path d="M55.026,9.939H1.454C0.65,9.939,0,10.59,0,11.393v33.694c0,0.803,0.65,1.455,1.454,1.455h53.572
			c0.804,0,1.454-0.651,1.454-1.454V11.393C56.48,10.59,55.83,9.939,55.026,9.939z M21.25,22.208
			c0.033-0.321,0.076-0.667,0.197-1.02c0.102-0.357,0.192-0.749,0.387-1.114c0.086-0.188,0.174-0.381,0.266-0.575
			c0.096-0.192,0.229-0.364,0.344-0.551c0.226-0.384,0.521-0.722,0.822-1.06c0.291-0.353,0.651-0.622,0.977-0.933
			c0.359-0.254,0.701-0.548,1.068-0.755c0.361-0.228,0.716-0.432,1.068-0.6c0.346-0.186,0.689-0.313,1.002-0.453
			c0.485-0.189,0.914-0.334,1.268-0.438c-0.148-0.364-0.275-0.743-0.369-1.147c-0.097-0.416-0.181-0.841-0.191-1.324
			c0.464,0.13,0.855,0.32,1.234,0.517c0.377,0.2,0.721,0.423,1.043,0.665c0.65,0.479,1.203,1.032,1.705,1.625
			c0.381,0.45,0.414,1.076,0.131,1.555l-0.059,0.097c-0.461,0.772-1.01,1.488-1.674,2.13c-0.328,0.322-0.693,0.623-1.092,0.9
			c-0.205,0.136-0.417,0.268-0.634,0.395c-0.225,0.123-0.463,0.236-0.723,0.336c-0.017-0.278-0.014-0.542,0.006-0.797
			c0.026-0.251,0.057-0.497,0.096-0.74c0.086-0.478,0.209-0.933,0.367-1.367c0.016-0.047,0.035-0.091,0.053-0.137
			c-0.154,0.018-0.314,0.04-0.488,0.065c-0.272,0.058-0.582,0.098-0.891,0.188c-0.319,0.072-0.643,0.173-0.973,0.293
			c-0.346,0.102-0.656,0.278-1.008,0.419c-0.309,0.191-0.666,0.348-0.959,0.581c-0.307,0.222-0.617,0.447-0.871,0.723
			c-0.128,0.133-0.279,0.256-0.396,0.4c-0.111,0.147-0.223,0.294-0.332,0.438c-0.242,0.279-0.391,0.601-0.555,0.901
			c-0.18,0.294-0.289,0.6-0.383,0.887c-0.088,0.287-0.215,0.547-0.252,0.792c-0.047,0.246-0.088,0.459-0.121,0.636
			c-0.066,0.358-0.105,0.562-0.105,0.562s-0.006-0.207-0.018-0.57c-0.006-0.183-0.012-0.406-0.02-0.662
			C21.154,22.81,21.22,22.528,21.25,22.208z M22.67,30.747h1.93l2.824,8.011h-1.818l-0.514-1.65h-2.957l-0.559,1.65h-1.762
			L22.67,30.747z M16.05,40.755h-1.242v3.377h-0.855v-3.377h-1.24v-0.727h3.338L16.05,40.755z M12.711,38.758v-8.012h3.895
			c1.965,0,2.467,1.229,2.467,2.055c0,1.15-0.648,1.473-0.982,1.64c0.982,0.368,1.238,1.149,1.238,1.94
			c0,0.634-0.267,1.239-0.691,1.651c-0.457,0.448-0.892,0.726-2.533,0.726H12.711z M19.05,44.133
			c-0.057-0.192-0.09-0.404-0.09-0.828c0-0.558-0.035-0.776-0.67-0.776h-0.885v1.604h-0.842v-4.104h2.076
			c1.092,0,1.291,0.806,1.291,1.16c0,0.454-0.229,0.841-0.635,0.978c0.337,0.148,0.521,0.274,0.521,1.04
			c0,0.599,0,0.749,0.182,0.817l0.001,0.109H19.05z M23.227,44.132l-0.264-0.846h-1.514l-0.285,0.846H20.26l1.463-4.104h0.99
			l1.445,4.104H23.227z M28.015,44.133h-0.859l-1.674-2.926H25.47v2.926h-0.799v-4.104h0.902l1.631,2.857h0.01v-2.857h0.801V44.133z
			 M27.016,27.14c0.16,0.36,0.297,0.736,0.404,1.136c0.107,0.413,0.205,0.835,0.23,1.316c-0.471-0.116-0.865-0.291-1.248-0.479
			c-0.384-0.188-0.736-0.403-1.064-0.633c-0.662-0.459-1.232-0.996-1.752-1.573c-0.395-0.438-0.448-1.064-0.178-1.551l0.057-0.098
			c0.437-0.785,0.964-1.518,1.609-2.179c0.318-0.333,0.671-0.644,1.064-0.933c0.201-0.142,0.406-0.28,0.621-0.413
			c0.221-0.129,0.455-0.251,0.713-0.357c0.026,0.276,0.03,0.541,0.016,0.796c-0.017,0.252-0.041,0.499-0.072,0.743
			c-0.072,0.482-0.181,0.94-0.326,1.378c-0.016,0.047-0.035,0.091-0.049,0.138c0.152-0.023,0.312-0.049,0.486-0.08
			c0.27-0.066,0.578-0.114,0.883-0.214c0.317-0.081,0.64-0.191,0.965-0.322c0.343-0.111,0.648-0.297,0.994-0.448
			c0.301-0.201,0.658-0.367,0.94-0.609c0.302-0.23,0.607-0.465,0.849-0.748c0.129-0.138,0.275-0.265,0.388-0.411
			c0.106-0.152,0.213-0.302,0.317-0.449c0.233-0.287,0.373-0.613,0.526-0.917c0.171-0.299,0.271-0.608,0.355-0.898
			c0.08-0.29,0.199-0.553,0.23-0.799c0.039-0.247,0.073-0.462,0.1-0.639c0.059-0.359,0.09-0.564,0.09-0.564s0.014,0.206,0.035,0.568
			c0.01,0.183,0.023,0.407,0.039,0.662c0.023,0.259-0.033,0.544-0.053,0.863c-0.023,0.32-0.057,0.669-0.166,1.025
			c-0.091,0.359-0.169,0.754-0.354,1.124c-0.079,0.191-0.163,0.386-0.248,0.583c-0.092,0.195-0.217,0.372-0.327,0.562
			c-0.216,0.391-0.498,0.736-0.789,1.083c-0.281,0.36-0.631,0.642-0.949,0.961c-0.353,0.265-0.687,0.569-1.047,0.787
			c-0.353,0.238-0.703,0.453-1.049,0.631c-0.341,0.197-0.68,0.335-0.989,0.483C27.789,26.867,27.365,27.025,27.016,27.14z
			 M28.42,30.747h1.763l3.181,5.579h0.022v-5.579h1.562v8.012h-1.672l-3.271-5.713h-0.022v5.713H28.42V30.747z M30.386,44.242
			c-1.497,0-1.753-0.863-1.753-1.372h0.82c0.006,0.229,0.121,0.663,0.871,0.663c0.404,0,0.857-0.097,0.857-0.531
			c0-0.321-0.308-0.406-0.744-0.509l-0.439-0.104c-0.664-0.152-1.303-0.301-1.303-1.205c0-0.457,0.244-1.264,1.576-1.264
			c1.258,0,1.594,0.823,1.6,1.326h-0.82c-0.026-0.181-0.092-0.617-0.842-0.617c-0.324,0-0.715,0.12-0.715,0.491
			c0,0.322,0.264,0.39,0.436,0.429l0.998,0.246c0.562,0.136,1.076,0.367,1.076,1.104C32.004,44.132,30.746,44.242,30.386,44.242z
			 M35.579,40.755h-2.062v0.926h1.805v0.726h-1.805v1.726H32.66v-4.104h2.919V40.755z M39.271,44.132h-3.115v-4.104h3.018v0.728
			h-2.178v0.862h2v0.726h-2v1.063h2.275V44.132z M43.406,44.133h-0.947c-0.057-0.192-0.09-0.404-0.09-0.828
			c0-0.558-0.037-0.776-0.67-0.776h-0.885v1.604h-0.842v-4.104h2.074c1.092,0,1.293,0.806,1.293,1.16
			c0,0.454-0.232,0.841-0.636,0.978c0.336,0.148,0.521,0.274,0.521,1.04c0,0.599,0,0.749,0.182,0.817V44.133z M43.768,38.76h-2.154
			l-2.477-3.516l-0.781,0.803v2.713h-1.674v-8.013h1.674v3.259l3.059-3.259h2.164l-3.27,3.28l3.459,4.73V38.76z"/>
	</g>
</g>
<g>
	<g>
		<path d="M41.881,40.737h-1.065v1.098h1.004c0.446,0,0.664-0.154,0.664-0.561C42.482,41.057,42.385,40.737,41.881,40.737z"/>
	</g>
</g>
<g>
	<g>
		<polygon points="22.213,40.956 22.205,40.956 21.678,42.578 22.725,42.578 		"/>
	</g>
</g>
<g>
	<g>
		<path d="M18.472,40.737h-1.068v1.098h1.004c0.447,0,0.664-0.154,0.664-0.561C19.072,41.057,18.974,40.737,18.472,40.737z"/>
	</g>
</g>
<g>
</g>
<g>
</g>
<g>
</g>
<g>
</g>
<g>
</g>
<g>
</g>
<g>
</g>
<g>
</g>
<g>
</g>
<g>
</g>
<g>
</g>
<g>
</g>
<g>
</g>
<g>
</g>
<g>
</g>
</svg>
