<?xml version="1.0" encoding="utf-8"?>
<!-- Generator: Adobe Illustrator 22.1.0, SVG Export Plug-In . SVG Version: 6.00 Build 0)  -->
<svg version="1.1" id="illustration" xmlns="http://www.w3.org/2000/svg" xmlns:xlink="http://www.w3.org/1999/xlink" x="0px"
	 y="0px" viewBox="0 0 732 1033" style="enable-background:new 0 0 732 1033;" xml:space="preserve">
<style type="text/css">
	.st0{opacity:0.5;fill:url(#SVGID_1_);enable-background:new    ;}
	.st1{opacity:0.5;fill:url(#SVGID_2_);enable-background:new    ;}
	.st2{opacity:7.000000e-02;fill:url(#SVGID_3_);enable-background:new    ;}
	.st3{opacity:7.000000e-02;fill:url(#SVGID_4_);enable-background:new    ;}
	.st4{opacity:0.2;fill:url(#SVGID_5_);enable-background:new    ;}
	.st5{fill:#F2994A;}
	.st6{opacity:0.15;fill:#FFFFFF;enable-background:new    ;}
	.st7{opacity:5.000000e-02;fill:url(#SVGID_6_);enable-background:new    ;}
	.st8{opacity:0.3;fill:url(#SVGID_7_);enable-background:new    ;}
	.st9{opacity:5.000000e-02;fill:url(#SVGID_8_);enable-background:new    ;}
	.st10{opacity:0.3;fill:url(#SVGID_9_);enable-background:new    ;}
	.st11{fill:#F2C94C;}
	.st12{opacity:0.3;fill:url(#SVGID_10_);enable-background:new    ;}
	.st13{opacity:0.2;fill:url(#SVGID_11_);enable-background:new    ;}
</style>
<linearGradient id="SVGID_1_" gradientUnits="userSpaceOnUse" x1="869.7535" y1="39.7423" x2="533.8306" y2="284.7883" gradientTransform="matrix(1 0 0 1 0 242)">
	<stop  offset="0" style="stop-color:#FFFFFF"/>
	<stop  offset="1" style="stop-color:#FFFFFF;stop-opacity:0"/>
</linearGradient>
<path class="st0" d="M528.5,360.5c-82.7-48.3-151.1-3.1-163.2,101c-2.1,18.1,11.6,41.9,28.2,51.6l269.9,157.6
	c16.6,9.7,30.3,1.9,28.3-18.6C679.6,533.8,611.2,408.7,528.5,360.5z"/>
<linearGradient id="SVGID_2_" gradientUnits="userSpaceOnUse" x1="698.537" y1="-195.5114" x2="362.6141" y2="49.535" gradientTransform="matrix(1 0 0 1 0 242)">
	<stop  offset="0" style="stop-color:#FFFFFF"/>
	<stop  offset="1" style="stop-color:#FFFFFF;stop-opacity:0"/>
</linearGradient>
<path class="st1" d="M620.7,225.2c0,71.9-41.6,105.9-92.9,75.9C476.6,271.2,435,188.7,435,116.8s41.6-105.9,92.9-75.9
	C579.2,70.8,620.7,153.4,620.7,225.2z"/>
<linearGradient id="SVGID_3_" gradientUnits="userSpaceOnUse" x1="909.7541" y1="9.7421" x2="573.8311" y2="254.7879" gradientTransform="matrix(1 0 0 1 0 242)">
	<stop  offset="0" style="stop-color:#FFFFFF"/>
	<stop  offset="1" style="stop-color:#FFFFFF;stop-opacity:0"/>
</linearGradient>
<path class="st2" d="M568.5,330.5c-82.7-48.3-151.1-3.1-163.2,101c-2.1,18.1,11.6,41.9,28.2,51.6l269.9,157.6
	c16.6,9.7,30.3,1.9,28.3-18.6C719.6,503.8,651.2,378.7,568.5,330.5z"/>
<linearGradient id="SVGID_4_" gradientUnits="userSpaceOnUse" x1="738.537" y1="-225.5113" x2="402.614" y2="19.5349" gradientTransform="matrix(1 0 0 1 0 242)">
	<stop  offset="0" style="stop-color:#FFFFFF"/>
	<stop  offset="1" style="stop-color:#FFFFFF;stop-opacity:0"/>
</linearGradient>
<path class="st3" d="M660.7,195.2c0,71.9-41.6,105.9-92.9,75.9C516.6,241.2,475,158.7,475,86.8s41.6-105.9,92.9-75.9
	C619.2,40.8,660.7,123.4,660.7,195.2z"/>
<linearGradient id="SVGID_5_" gradientUnits="userSpaceOnUse" x1="114.2415" y1="113.582" x2="72.2449" y2="186.3417" gradientTransform="matrix(1 0 0 1 0 242)">
	<stop  offset="0" style="stop-color:#FFFFFF"/>
	<stop  offset="1" style="stop-color:#FFFFFF;stop-opacity:0"/>
</linearGradient>
<path class="st4" d="M186.3,397.2L0.1,289.7v97l186.3,107.5L186.3,397.2z"/>
<path class="st5" d="M37.9,344.1c0,8-4.7,11.7-10.6,8.4c-5.8-3.4-10.6-12.6-10.6-20.6s4.7-11.7,10.6-8.4
	C33.2,326.9,37.9,336.1,37.9,344.1z"/>
<path class="st6" d="M47.5,341.1l60.9,35.1v13.6l-60.9-35.1V341.1z"/>
<path class="st6" d="M47.8,368.5l119.3,68.9V451L47.8,382.1V368.5z"/>
<linearGradient id="SVGID_6_" gradientUnits="userSpaceOnUse" x1="682.4731" y1="320.2601" x2="450.7542" y2="721.7139" gradientTransform="matrix(1 0 0 1 0 242)">
	<stop  offset="0" style="stop-color:#FFFFFF"/>
	<stop  offset="1" style="stop-color:#FFFFFF;stop-opacity:0"/>
</linearGradient>
<path class="st7" d="M480.3,495l187.1,108v402.9L480.3,898V495z"/>
<linearGradient id="SVGID_7_" gradientUnits="userSpaceOnUse" x1="651.1957" y1="347.2208" x2="419.4768" y2="748.6747" gradientTransform="matrix(1 0 0 1 0 242)">
	<stop  offset="0" style="stop-color:#FFFFFF"/>
	<stop  offset="1" style="stop-color:#FFFFFF;stop-opacity:0"/>
</linearGradient>
<path class="st8" d="M636.2,630L449,522v402.9l187.1,108L636.2,630z M510,583l62.5,36v16L510,599.5V583z"/>
<path class="st6" d="M467.1,777.3L617.4,864v13.6l-150.3-86.7L467.1,777.3z"/>
<path class="st6" d="M477.7,809.9L607,884.5v13.6l-129.3-74.6V809.9z"/>
<path class="st5" d="M584.4,743.4c0-31.9-18.7-68.6-41.7-81.9c-23-13.3-41.7,1.8-41.7,33.7s18.7,68.6,41.7,81.9
	C565.7,790.4,584.4,775.3,584.4,743.4z"/>
<linearGradient id="SVGID_8_" gradientUnits="userSpaceOnUse" x1="449.4792" y1="-4.0505" x2="217.7602" y2="397.4036" gradientTransform="matrix(1 0 0 1 0 242)">
	<stop  offset="0" style="stop-color:#FFFFFF"/>
	<stop  offset="1" style="stop-color:#FFFFFF;stop-opacity:0"/>
</linearGradient>
<path class="st9" d="M247.3,170.7l187.1,108v402.9l-187.1-108L247.3,170.7z"/>
<linearGradient id="SVGID_9_" gradientUnits="userSpaceOnUse" x1="418.1957" y1="23.2208" x2="186.4769" y2="424.6747" gradientTransform="matrix(1 0 0 1 0 242)">
	<stop  offset="0" style="stop-color:#FFFFFF"/>
	<stop  offset="1" style="stop-color:#FFFFFF;stop-opacity:0"/>
</linearGradient>
<path class="st10" d="M403.2,306L216,198v402.9l187.1,108L403.2,306z M277,259l62.5,36v16L277,275.5V259z"/>
<path class="st6" d="M234.1,452.9l150.3,86.7v13.6l-150.3-86.7L234.1,452.9z"/>
<path class="st6" d="M244.6,485.6l129.2,74.6v13.6l-129.3-74.6L244.6,485.6z"/>
<path class="st11" d="M351.4,419.1c0-31.9-18.7-68.6-41.7-81.9S268,339,268,370.9s18.7,68.6,41.7,81.9
	C332.7,466.1,351.4,451,351.4,419.1z"/>
<linearGradient id="SVGID_10_" gradientUnits="userSpaceOnUse" x1="286.483" y1="339.6609" x2="132.8329" y2="459.9649" gradientTransform="matrix(1 0 0 1 0 242)">
	<stop  offset="0" style="stop-color:#FFFFFF"/>
	<stop  offset="1" style="stop-color:#FFFFFF;stop-opacity:0"/>
</linearGradient>
<path class="st12" d="M351.4,643.8L53.8,472l0.1,155.1l271.3,156.6l26.3,38.9L351.4,643.8z"/>
<path class="st5" d="M22.1,532.5v-42.1l112.3,64.8v42.1L22.1,532.5z"/>
<path class="st6" d="M274.9,637.4l-65.2-37.6v13.6l65.2,37.6V637.4z"/>
<path class="st6" d="M274.9,664.7l-125.7-72.5v13.6l125.7,72.5V664.7z"/>
<path class="st6" d="M274.9,691.9L122.7,604v13.6L275,705.5L274.9,691.9z"/>
<path class="st5" d="M291,660.9c0,12.8,7.6,27.5,16.9,32.9s16.9-0.6,16.9-13.4c0-12.8-7.6-27.5-16.9-32.9
	C298.5,642.1,290.9,648.1,291,660.9z"/>
<linearGradient id="SVGID_11_" gradientUnits="userSpaceOnUse" x1="138.9946" y1="-24.5897" x2="86.6369" y2="16.7302" gradientTransform="matrix(1 0 0 1 0 242)">
	<stop  offset="0" style="stop-color:#FFFFFF"/>
	<stop  offset="1" style="stop-color:#FFFFFF;stop-opacity:0"/>
</linearGradient>
<path class="st13" d="M118.1,178.4c6,3.4,10.8,11.8,10.8,18.7v30.5l20.2,11.6c6,3.4,10.8,11.8,10.8,18.7s-4.8,9.7-10.8,6.3
	l-20.2-11.6v30.5c0,6.9-4.8,9.7-10.8,6.3c-6-3.4-10.8-11.8-10.8-18.7v-30.5l-20.2-11.6c-6-3.4-10.8-11.8-10.8-18.7s4.8-9.7,10.8-6.3
	l20.2,11.6v-30.5C107.3,177.8,112.1,175,118.1,178.4z"/>
</svg>
